<mxfile host="app.diagrams.net" modified="2021-02-22T04:40:10.190Z" agent="5.0 (Windows NT 10.0; Win64; x64) AppleWebKit/537.36 (KHTML, like Gecko) Chrome/90.0.4421.5 Safari/537.36" etag="5v92Z6dSN9g5qaM3JY2S" version="14.2.9" type="github">
  <diagram id="Nx11fILAezdFIl-zZZsF" name="Page-1">
    <mxGraphModel dx="868" dy="482" grid="1" gridSize="10" guides="1" tooltips="1" connect="1" arrows="1" fold="1" page="1" pageScale="1" pageWidth="827" pageHeight="1169" math="0" shadow="0">
      <root>
        <mxCell id="0" />
        <mxCell id="1" parent="0" />
        <mxCell id="R7WHJkweN4c-ecjy4z3e-7" style="edgeStyle=orthogonalEdgeStyle;rounded=0;orthogonalLoop=1;jettySize=auto;html=1;" edge="1" parent="1" source="R7WHJkweN4c-ecjy4z3e-1" target="R7WHJkweN4c-ecjy4z3e-6">
          <mxGeometry relative="1" as="geometry" />
        </mxCell>
        <mxCell id="R7WHJkweN4c-ecjy4z3e-1" value="Start" style="rounded=0;whiteSpace=wrap;html=1;" vertex="1" parent="1">
          <mxGeometry x="330" y="20" width="120" height="60" as="geometry" />
        </mxCell>
        <mxCell id="R7WHJkweN4c-ecjy4z3e-9" value="Yes" style="edgeStyle=orthogonalEdgeStyle;rounded=0;orthogonalLoop=1;jettySize=auto;html=1;entryX=0.5;entryY=0;entryDx=0;entryDy=0;" edge="1" parent="1" source="R7WHJkweN4c-ecjy4z3e-4" target="R7WHJkweN4c-ecjy4z3e-10">
          <mxGeometry relative="1" as="geometry">
            <mxPoint x="390" y="350" as="targetPoint" />
          </mxGeometry>
        </mxCell>
        <mxCell id="R7WHJkweN4c-ecjy4z3e-25" value="No" style="edgeStyle=orthogonalEdgeStyle;rounded=0;orthogonalLoop=1;jettySize=auto;html=1;" edge="1" parent="1" source="R7WHJkweN4c-ecjy4z3e-4" target="R7WHJkweN4c-ecjy4z3e-24">
          <mxGeometry relative="1" as="geometry" />
        </mxCell>
        <mxCell id="R7WHJkweN4c-ecjy4z3e-4" value="if block == false" style="rhombus;whiteSpace=wrap;html=1;" vertex="1" parent="1">
          <mxGeometry x="320" y="230" width="140" height="80" as="geometry" />
        </mxCell>
        <mxCell id="R7WHJkweN4c-ecjy4z3e-26" style="edgeStyle=orthogonalEdgeStyle;rounded=0;orthogonalLoop=1;jettySize=auto;html=1;entryX=0.5;entryY=0;entryDx=0;entryDy=0;" edge="1" parent="1" source="R7WHJkweN4c-ecjy4z3e-6" target="R7WHJkweN4c-ecjy4z3e-4">
          <mxGeometry relative="1" as="geometry" />
        </mxCell>
        <mxCell id="R7WHJkweN4c-ecjy4z3e-6" value="block = true" style="rounded=1;whiteSpace=wrap;html=1;" vertex="1" parent="1">
          <mxGeometry x="330" y="130" width="120" height="60" as="geometry" />
        </mxCell>
        <mxCell id="R7WHJkweN4c-ecjy4z3e-11" value="Yes" style="edgeStyle=orthogonalEdgeStyle;rounded=0;orthogonalLoop=1;jettySize=auto;html=1;" edge="1" parent="1" source="R7WHJkweN4c-ecjy4z3e-10" target="R7WHJkweN4c-ecjy4z3e-14">
          <mxGeometry relative="1" as="geometry">
            <mxPoint x="390" y="530" as="targetPoint" />
          </mxGeometry>
        </mxCell>
        <mxCell id="R7WHJkweN4c-ecjy4z3e-22" style="edgeStyle=orthogonalEdgeStyle;rounded=0;orthogonalLoop=1;jettySize=auto;html=1;entryX=0.5;entryY=1;entryDx=0;entryDy=0;" edge="1" parent="1" source="R7WHJkweN4c-ecjy4z3e-10" target="R7WHJkweN4c-ecjy4z3e-21">
          <mxGeometry relative="1" as="geometry" />
        </mxCell>
        <mxCell id="R7WHJkweN4c-ecjy4z3e-10" value="Nếu có người đến gần cửa" style="rhombus;whiteSpace=wrap;html=1;" vertex="1" parent="1">
          <mxGeometry x="310" y="400" width="160" height="80" as="geometry" />
        </mxCell>
        <mxCell id="R7WHJkweN4c-ecjy4z3e-20" style="edgeStyle=orthogonalEdgeStyle;rounded=0;orthogonalLoop=1;jettySize=auto;html=1;" edge="1" parent="1" source="R7WHJkweN4c-ecjy4z3e-12" target="R7WHJkweN4c-ecjy4z3e-17">
          <mxGeometry relative="1" as="geometry" />
        </mxCell>
        <mxCell id="R7WHJkweN4c-ecjy4z3e-12" value="Mở cửa&lt;br&gt;" style="rounded=0;whiteSpace=wrap;html=1;" vertex="1" parent="1">
          <mxGeometry x="330" y="660" width="120" height="60" as="geometry" />
        </mxCell>
        <mxCell id="R7WHJkweN4c-ecjy4z3e-15" value="Yes" style="edgeStyle=orthogonalEdgeStyle;rounded=0;orthogonalLoop=1;jettySize=auto;html=1;entryX=0.5;entryY=0;entryDx=0;entryDy=0;" edge="1" parent="1" source="R7WHJkweN4c-ecjy4z3e-14" target="R7WHJkweN4c-ecjy4z3e-12">
          <mxGeometry relative="1" as="geometry" />
        </mxCell>
        <mxCell id="R7WHJkweN4c-ecjy4z3e-18" value="No" style="edgeStyle=orthogonalEdgeStyle;rounded=0;orthogonalLoop=1;jettySize=auto;html=1;" edge="1" parent="1" source="R7WHJkweN4c-ecjy4z3e-14" target="R7WHJkweN4c-ecjy4z3e-17">
          <mxGeometry relative="1" as="geometry" />
        </mxCell>
        <mxCell id="R7WHJkweN4c-ecjy4z3e-14" value="Nếu cửa đang đóng" style="rhombus;whiteSpace=wrap;html=1;" vertex="1" parent="1">
          <mxGeometry x="310" y="530" width="160" height="80" as="geometry" />
        </mxCell>
        <mxCell id="R7WHJkweN4c-ecjy4z3e-19" style="edgeStyle=orthogonalEdgeStyle;rounded=0;orthogonalLoop=1;jettySize=auto;html=1;entryX=0;entryY=0.5;entryDx=0;entryDy=0;" edge="1" parent="1" source="R7WHJkweN4c-ecjy4z3e-17" target="R7WHJkweN4c-ecjy4z3e-10">
          <mxGeometry relative="1" as="geometry">
            <Array as="points">
              <mxPoint x="150" y="440" />
            </Array>
          </mxGeometry>
        </mxCell>
        <mxCell id="R7WHJkweN4c-ecjy4z3e-17" value="Delay 5s" style="whiteSpace=wrap;html=1;" vertex="1" parent="1">
          <mxGeometry x="90" y="540" width="120" height="60" as="geometry" />
        </mxCell>
        <mxCell id="R7WHJkweN4c-ecjy4z3e-23" style="edgeStyle=orthogonalEdgeStyle;rounded=0;orthogonalLoop=1;jettySize=auto;html=1;entryX=1;entryY=0.5;entryDx=0;entryDy=0;" edge="1" parent="1" source="R7WHJkweN4c-ecjy4z3e-21" target="R7WHJkweN4c-ecjy4z3e-4">
          <mxGeometry relative="1" as="geometry">
            <Array as="points">
              <mxPoint x="610" y="270" />
            </Array>
          </mxGeometry>
        </mxCell>
        <mxCell id="R7WHJkweN4c-ecjy4z3e-21" value="Delay 5s" style="rounded=0;whiteSpace=wrap;html=1;" vertex="1" parent="1">
          <mxGeometry x="550" y="330" width="120" height="60" as="geometry" />
        </mxCell>
        <mxCell id="R7WHJkweN4c-ecjy4z3e-27" style="edgeStyle=orthogonalEdgeStyle;rounded=0;orthogonalLoop=1;jettySize=auto;html=1;" edge="1" parent="1" source="R7WHJkweN4c-ecjy4z3e-24">
          <mxGeometry relative="1" as="geometry">
            <mxPoint x="390" y="210" as="targetPoint" />
            <Array as="points">
              <mxPoint x="170" y="210" />
            </Array>
          </mxGeometry>
        </mxCell>
        <mxCell id="R7WHJkweN4c-ecjy4z3e-24" value="Nếu đến giờ mở cửa:&lt;br&gt;block = false" style="whiteSpace=wrap;html=1;" vertex="1" parent="1">
          <mxGeometry x="110" y="240" width="120" height="60" as="geometry" />
        </mxCell>
      </root>
    </mxGraphModel>
  </diagram>
</mxfile>
